<?xml version="1.0" encoding="utf-8"?>
<svg xmlns="http://www.w3.org/2000/svg" height="128" width="128" viewBox="0 0 128 128">
  <g>
    <path id="path1" transform="rotate(0,64,64) translate(1.6,1.6) scale(3.9,3.9)  " fill="#FF2828" d="M4.306221,2.0226746C3.7084656,2.0226746 3.1109619,2.2404175 2.6759644,2.6759033 2.2399902,3.1119385 2,3.690918 2,4.3079834 2,4.9239502 2.2399902,5.5029297 2.6759644,5.9389648L12.029968,15.292969C12.420959,15.68396,12.420959,16.317017,12.029968,16.706909L2.6759644,26.062012C2.2399902,26.496948 2,27.075928 2,27.692993 2,28.30896 2.2399902,28.887939 2.6759644,29.323975 3.5459595,30.194946 5.065979,30.197021 5.9379883,29.323975L15.292969,19.969971C15.47998,19.781982 15.733948,19.677002 16,19.677002 16.265991,19.677002 16.519958,19.781982 16.70697,19.969971L26.061951,29.323975C26.93396,30.197021 28.453979,30.194946 29.323975,29.323975 29.759949,28.887939 30,28.30896 30,27.692993 30,27.075928 29.759949,26.496948 29.323975,26.062012L19.969971,16.706909C19.578979,16.317017,19.578979,15.68396,19.969971,15.292969L29.323975,5.9389648C29.759949,5.5029297 30,4.9239502 30,4.3079834 30,3.690918 29.759949,3.1119385 29.323975,2.6759033 28.453979,1.8049316 26.93396,1.8049316 26.061951,2.6759033L16.70697,12.029907C16.315979,12.419922,15.68396,12.419922,15.292969,12.029907L5.9379883,2.6759033C5.5019836,2.2404175,4.9039764,2.0226746,4.306221,2.0226746z M4.3079834,0C5.4580078,0,6.539978,0.44799805,7.3529663,1.2619629L16,9.907959 24.646973,1.2619629C25.459961,0.44799805 26.541992,0 27.691956,0 28.843994,0 29.925964,0.44799805 30.737976,1.2619629 31.552002,2.0739746 32,3.1560059 32,4.3079834 32,5.4580078 31.552002,6.539917 30.737976,7.3529053L22.091003,16 30.737976,24.647949C31.552002,25.459961 32,26.541992 32,27.692993 32,28.843018 31.552002,29.924927 30.737976,30.739014 29.924988,31.552002 28.843994,32 27.691956,32 26.541992,32 25.460999,31.552002 24.646973,30.739014L16,22.090942 7.3529663,30.739014C6.5390015,31.552002 5.4580078,32 4.3079834,32 3.1560059,32 2.0749512,31.552002 1.2619629,30.739014 0.44799805,29.924927 0,28.843018 0,27.692993 0,26.541992 0.44799805,25.459961 1.2619629,24.647949L9.9089966,16 1.2619629,7.3529053C0.44799805,6.539917 0,5.4580078 0,4.3079834 0,3.1560059 0.44799805,2.0739746 1.2619629,1.2619629 2.0739746,0.44799805 3.1560059,0 4.3079834,0z" />
  </g>
</svg>

