<?xml version="1.0" encoding="utf-8"?>
<svg xmlns="http://www.w3.org/2000/svg" height="128" width="128" viewBox="0 0 128 128">
  <g>
    <path id="path1" transform="rotate(0,64,64) translate(1.6,1.61555051803589) scale(3.9,3.9)  " fill="#DC1414" d="M16,22.50701C16.828,22.50701 17.5,23.179011 17.5,24.00701 17.5,24.835011 16.828,25.50701 16,25.50701 15.172,25.50701 14.5,24.835011 14.5,24.00701 14.5,23.179011 15.172,22.50701 16,22.50701z M15.938,5.7450132C16.489998,5.7450132,16.938,6.1920347,16.938,6.7450132L16.938,18.745013C16.938,19.297992 16.489998,19.745013 15.938,19.745013 15.386002,19.745013 14.938,19.297992 14.938,18.745013L14.938,6.7450132C14.938,6.1920347,15.386002,5.7450132,15.938,5.7450132z M16,2.0000014C8.2799997,2.0000014 2,8.2780066 2,15.996013 2,23.714019 8.2799997,29.992024 16,29.992024 23.719999,29.992024 30,23.714019 30,15.996013 30,8.2780066 23.719999,2.0000014 16,2.0000014z M16,0C24.822,0 32,7.1760057 32,15.996013 32,24.81602 24.822,31.992026 16,31.992026 7.1779995,31.992026 0,24.81602 0,15.996013 0,7.1760057 7.1779995,0 16,0z" />
  </g>
</svg>

