<?xml version="1.0" encoding="utf-8"?>
<svg xmlns="http://www.w3.org/2000/svg" height="128" width="128" viewBox="0 0 128 128">
  <g>
    <path id="path1" transform="rotate(0,64,64) translate(1.6,1.60003719329834) scale(3.9,3.9)  " fill="#FFFFFF" d="M29.999994,0C30.552994,-1.1920929E-07,30.999992,0.44799932,30.999992,0.99999857L30.999992,11.001986 20.860006,11.001986C20.308006,11.001986 19.860008,10.553987 19.860008,10.001987 19.860008,9.4499875 20.308006,9.0019885 20.860006,9.0019885L27.879488,9.0019885 27.646961,8.6472083C25.062847,4.8487974 20.721582,2.5409786 16,2.5409784 8.2799683,2.5409786 2,8.6999723 2,16.270983 2,23.840987 8.2799683,29.99998 16,29.99998 23.719971,29.99998 30,23.840987 30,16.270983 30,15.717974 30.447021,15.270984 31,15.270984 31.552979,15.270984 32,15.717974 32,16.270983 32,24.943982 24.822021,31.99998 16,31.99998 7.1779785,31.99998 0,24.943982 0,16.270983 0,7.5969759 7.1779785,0.54097956 16,0.54097939 21.202736,0.54097956 26.005089,3.0001701 28.98875,7.0798002L28.999996,7.0957452 28.999996,0.99999857C28.999996,0.44799932,29.446995,-1.1920929E-07,29.999994,0z" />
  </g>
</svg>

