<?xml version="1.0" encoding="utf-8"?>
<svg xmlns="http://www.w3.org/2000/svg" height="128" width="128" viewBox="0 0 128 128">
  <g>
    <path id="path1" transform="rotate(0,64,64) translate(29.9999837875289,0) scale(4.00000190734954,4.00000190734954)  " fill="#FFFFFF" d="M4.4000245,2.1270149C3.9750367,2.2520149 3.6100464,2.4700022 3.2950442,2.783021 2.3400269,3.7360242 2.0000001,5.4330156 1.9999999,6.7030051 2.0000001,9.5180085 3.8890381,12.16602 6.3930054,12.864019L6.349012,13.021809 6.349012,29.094985C6.349012,29.584985,6.8800097,29.999984,7.5100074,29.999984L9.6709996,29.999984C10.300997,29.999984,10.831995,29.584985,10.831995,29.094985L10.831995,12.915257 10.822998,12.885015C13.244019,12.164006 15,9.5650056 15,6.7030051 15,3.4909985 13.991028,2.474 12.864014,2.1830147 12.847046,3.0500193 12.832031,4.7140215 12.835999,7.9050014L12.835999,8.5630219 12.511047,8.9020112C12.003052,9.4020112 9.7070313,10.188999 8.5679932,10.179997 7.4540406,10.162998 5.8860474,9.6170075 4.9780274,9.1130097 4.3670045,8.7720063 4.3670045,8.7720063 4.3930054,3.9740005 4.3970337,3.3630078 4.401001,2.6740122 4.4000245,2.1270149z M5.347046,0L5.3650513,0 5.7790528,0.0010070796 6.0740357,0.29602084C6.4120484,0.63699362 6.4120484,0.63699362 6.3930054,3.9850173 6.387024,5.1499956 6.3770142,6.7920254 6.4020386,7.5870083 7.0960084,7.8959988 8.0110474,8.1710236 8.597046,8.1799958 9.1119996,8.1680024 10.239014,7.8309963 10.835022,7.5809963 10.828003,0.75701932 10.833008,0.75100736 11.210999,0.37301666L11.504028,0.079009972 11.921021,0.078002892C14.239014,0.078002959 17,1.2279972 17,6.7030051 17,9.8468306 15.321327,12.762121 12.845126,14.177238L12.831987,14.184365 12.831987,29.094985C12.831987,30.695985,11.413993,31.999984,9.6709996,31.999984L7.5100074,31.999984C5.7670141,31.999984,4.3490196,30.695985,4.3490196,29.094985L4.3490196,14.180119 4.3395095,14.175231C1.7534534,12.773893 5.8291015E-08,9.8594735 0,6.7030051 5.8291015E-08,5.8920005 0.13604742,3.1100171 1.8820191,1.3670051 2.7920533,0.46002213 3.9580079,0 5.347046,0z" />
  </g>
</svg>

