<?xml version="1.0" encoding="utf-8"?>
<svg xmlns="http://www.w3.org/2000/svg" height="128" width="128" viewBox="0 0 128 128">
  <g>
    <path id="path1" transform="rotate(0,64,64) translate(1.6,1.6) scale(3.9,3.9)  " fill="#FF2828" d="M11.000001,10.999994L11.000001,20.999994 21.000002,20.999994 21.000002,10.999994z M9.000001,8.9999943L23.000002,8.9999943 23.000002,22.999994 9.000001,22.999994z M16,2C8.2799988,2 2,8.2799988 2,16 2,23.720001 8.2799988,30 16,30 23.720001,30 30,23.720001 30,16 30,8.2799988 23.720001,2 16,2z M16,0C24.821991,0 32,7.178009 32,16 32,24.821991 24.821991,32 16,32 7.1779785,32 0,24.821991 0,16 0,7.178009 7.1779785,0 16,0z" />
  </g>
</svg>

