<?xml version="1.0" encoding="utf-8"?>
<svg xmlns="http://www.w3.org/2000/svg" height="128" width="128" viewBox="0 0 128 128">
  <g>
    <path id="path1" transform="rotate(0,64,64) translate(1.6,1.6) scale(3.9,3.9)  " fill="#FFFFFF" d="M1.0002288,0C1.2559776,2.3003668E-07,1.5117262,0.097747288,1.7072186,0.29324149L16,14.586132 30.29278,0.29324149C30.683766,-0.097746828 31.315775,-0.097746828 31.706761,0.29324149 32.097748,0.68424486 32.097748,1.3162439 31.706761,1.707232L17.413979,16.000122 31.706761,30.293013C32.097748,30.684015 32.097748,31.316015 31.706761,31.707003 31.511757,31.902008 31.25578,32 30.999802,32 30.743763,32 30.487786,31.902008 30.29278,31.707003L16,17.414112 1.7072186,31.707003C1.5122145,31.902008 1.2562368,32 1.0002593,32 0.74422078,32 0.48824324,31.902008 0.29323908,31.707003 -0.097746359,31.316015 -0.097746359,30.684015 0.29323908,30.293013L14.58602,16.000122 0.29323908,1.707232C-0.097746359,1.3162439 -0.097746359,0.68424486 0.29323908,0.29324149 0.48873149,0.097747288 0.74448018,2.3003668E-07 1.0002288,0z" />
  </g>
</svg>

