<?xml version="1.0" encoding="utf-8"?>
<svg xmlns="http://www.w3.org/2000/svg" height="128" width="128" viewBox="0 0 128 128">
  <g>
    <ellipse cy="64" cx="64" stroke-width="7.8" ry="60.1" rx="60.1" stroke="#D13C3C" fill="transparent" />
    <path id="path1" transform="rotate(0,64,64) translate(1.6,15.4391502380371) scale(3.9,3.9)  " fill="#D78E8E" d="M14.367996,21.314989L16.753998,21.314989 16.781998,21.335009 13.562996,24.828964 12.402,24.828964z M18.236,21.240954L20.658997,21.240954 22.707001,24.903 21.608002,24.903z M0,5.7100183L5.1569977,9.1060125 5.1569977,14.852957 0,18.249012z M6.8300018,5.0620085L20.507996,5.0620085C20.513,8.6090032 23.399994,11.492973 26.947998,11.492973 27.128998,11.492973 27.306,11.481011 27.481995,11.465997L27.481995,18.309986 21.300995,18.309986 21.300995,19.593983 13.514999,19.593983 13.514999,18.309986 6.8300018,18.309986z M25.520996,2.0769638L25.520996,5.140988 23.985992,5.140988 26.847992,8.4439642 29.709,5.140988 28.054001,5.140988 28.054001,2.0769638z M26.949005,0C29.737991,-1.5592741E-07 32,2.2620224 32,5.0519988 32,7.8409988 29.737991,10.101983 26.949005,10.101983 24.158997,10.101983 21.897995,7.8409988 21.897995,5.0519988 21.897995,2.2620224 24.158997,-1.5592741E-07 26.949005,0z" />
  </g>
</svg>

